# xmcd
#
# Track frame offsets: 
#        150
#        21783
#        35998
#        54004
#        64807
#        75147
#        87789
#        105027
#        122696
#        137875
#        155654
#        168398
#        181745
#        197371
#        212879
#
# Disc length: 3063 seconds
#
# Revision: 0
# Processed by: cddbd v1.5.2PL0 Copyright (c) Steve Scherf et al.
# Submitted via: ExactAudioCopy v1.0b1
#
DISCID=b60bf50f
DTITLE=Miranda Lambert - Revolution
DYEAR=2009
DGENRE=Country
TTITLE0=White Liar
TTITLE1=Only Prettier
TTITLE2=Dead Flowers
TTITLE3=Me and Your Cigarettes
TTITLE4=Maintain The Pain
TTITLE5=Airstream Song
TTITLE6=Makin' Plans
TTITLE7=Time To Get A Gun
TTITLE8=Somewhere Trouble Don't Go
TTITLE9=The House That Built Me
TTITLE10=Love Song
TTITLE11=Heart Like Mine
TTITLE12=Sin for A Sin
TTITLE13=That's The Way The World Goes 'Round
TTITLE14=Virginia Bluebell
EXTD=
EXTT0=
EXTT1=
EXTT2=
EXTT3=
EXTT4=
EXTT5=
EXTT6=
EXTT7=
EXTT8=
EXTT9=
EXTT10=
EXTT11=
EXTT12=
EXTT13=
EXTT14=
PLAYORDER=
